# xmcd
#
# Track frame offsets:
#	150
#	19946
#	33266
#	49868
#	68605
#	88352
#	108832
#	128762
#	157140
#	178118
#	192400
#
# Disc length: 2805 seconds
#
# Revision: 0
# Processed by: cddbd v1.5.1PL0 Copyright (c) Steve Scherf et al.
# Submitted via: dBpowerAMP V4.0
#
DISCID=950af30b
DTITLE=Riverhead Slide - Naked Blues
DYEAR=1900
DGENRE=
TTITLE0=Naked Blues
TTITLE1=Sitting in the Rain
TTITLE2=Someone Else's Baby
TTITLE3=Midlife Crisis blues
TTITLE4=Te Arai blues
TTITLE5=Talking Dirty Mama
TTITLE6=My Babe
TTITLE7=Don't forget about him
TTITLE8=Why don't you?
TTITLE9=Comin' Home
TTITLE10=Hust my Mouth
EXTD=
EXTT0=
EXTT1=
EXTT2=
EXTT3=
EXTT4=
EXTT5=
EXTT6=
EXTT7=
EXTT8=
EXTT9=
EXTT10=
PLAYORDER=
